<?xml version="1.0" encoding="UTF-8" standalone="no"?>
<!DOCTYPE svg PUBLIC "-//W3C//DTD SVG 1.1//EN"
 "http://www.w3.org/Graphics/SVG/1.1/DTD/svg11.dtd">
<!-- Generated by graphviz version 2.42.3 ()
 -->
<!-- Title: %3 Pages: 1 -->
<svg width="774pt" height="538pt"
 viewBox="0.00 0.00 774.00 538.00" xmlns="http://www.w3.org/2000/svg" xmlns:xlink="http://www.w3.org/1999/xlink">
<g id="graph0" class="graph" transform="scale(1 1) rotate(0) translate(4 534)">
<title>%3</title>
<polygon fill="white" stroke="transparent" points="-4,4 -4,-534 770,-534 770,4 -4,4"/>
<!-- context -->
<g id="node1" class="node">
<title>context</title>
<polygon fill="#fbfbdb" stroke="transparent" points="27.5,-4 27.5,-82 95.5,-82 95.5,-4 27.5,-4"/>
<polygon fill="none" stroke="black" points="27.5,-54 27.5,-82 95.5,-82 95.5,-54 27.5,-54"/>
<text text-anchor="start" x="32.5" y="-65.2" font-family="Helvetica,sans-Serif" font-weight="bold" font-size="16.00">context</text>
<polygon fill="none" stroke="black" points="27.5,-29 27.5,-54 95.5,-54 95.5,-29 27.5,-29"/>
<text text-anchor="start" x="32.5" y="-38.8" font-family="Helvetica,sans-Serif" text-decoration="underline" font-size="14.00">key</text>
<polygon fill="none" stroke="black" points="27.5,-4 27.5,-29 95.5,-29 95.5,-4 27.5,-4"/>
<text text-anchor="start" x="32.5" y="-12.8" font-family="Helvetica,sans-Serif" font-size="14.00">value</text>
</g>
<!-- source -->
<g id="node2" class="node">
<title>source</title>
<polygon fill="#fbbb69" stroke="transparent" points="666.5,-214.5 666.5,-317.5 739.5,-317.5 739.5,-214.5 666.5,-214.5"/>
<polygon fill="none" stroke="black" points="667,-289 667,-317 740,-317 740,-289 667,-289"/>
<text text-anchor="start" x="677" y="-300.2" font-family="Helvetica,sans-Serif" font-weight="bold" font-size="16.00">source</text>
<polygon fill="none" stroke="black" points="667,-264 667,-289 740,-289 740,-264 667,-264"/>
<text text-anchor="start" x="672" y="-273.8" font-family="Helvetica,sans-Serif" text-decoration="underline" font-size="14.00">id</text>
<polygon fill="none" stroke="black" points="667,-239 667,-264 740,-264 740,-239 667,-239"/>
<text text-anchor="start" x="672" y="-247.8" font-family="Helvetica,sans-Serif" font-size="14.00">route</text>
<polygon fill="none" stroke="black" points="667,-214 667,-239 740,-239 740,-214 667,-214"/>
<text text-anchor="start" x="672" y="-222.8" font-family="Helvetica,sans-Serif" font-size="14.00">timestamp</text>
</g>
<!-- source_entry -->
<g id="node3" class="node">
<title>source_entry</title>
<polygon fill="#fbbb69" stroke="transparent" points="434.5,-202 434.5,-330 545.5,-330 545.5,-202 434.5,-202"/>
<polygon fill="none" stroke="black" points="435,-302 435,-330 546,-330 546,-302 435,-302"/>
<text text-anchor="start" x="440" y="-313.2" font-family="Helvetica,sans-Serif" font-weight="bold" font-size="16.00">source_entry</text>
<polygon fill="none" stroke="black" points="435,-277 435,-302 546,-302 546,-277 435,-277"/>
<text text-anchor="start" x="440" y="-286.8" font-family="Helvetica,sans-Serif" text-decoration="underline" font-size="14.00">id</text>
<polygon fill="none" stroke="black" points="435,-252 435,-277 546,-277 546,-252 435,-252"/>
<text text-anchor="start" x="440" y="-261.8" font-family="Helvetica,sans-Serif" font-style="italic" font-size="14.00">source_id</text>
<polygon fill="none" stroke="black" points="435,-227 435,-252 546,-252 546,-227 435,-227"/>
<text text-anchor="start" x="440" y="-236.8" font-family="Helvetica,sans-Serif" font-style="italic" font-size="14.00">artefact_id</text>
<polygon fill="none" stroke="black" points="435,-202 435,-227 546,-227 546,-202 435,-202"/>
<text text-anchor="start" x="440" y="-210.8" font-family="Helvetica,sans-Serif" font-size="14.00">content_type_id</text>
</g>
<!-- source_entry&#45;&#45;source -->
<g id="edge1" class="edge">
<title>source_entry&#45;&#45;source</title>
<path fill="none" stroke="#7f7f7f" stroke-dasharray="5,2" d="M553.74,-266C587.39,-266 628.02,-266 658.24,-266"/>
<text text-anchor="start" x="651.24" y="-254.8" font-family="Times,serif" font-size="14.00">1</text>
<text text-anchor="start" x="553.74" y="-254.8" font-family="Times,serif" font-size="14.00">0..N</text>
</g>
<!-- artefact -->
<g id="node4" class="node">
<title>artefact</title>
<polygon fill="#fbbb69" stroke="transparent" points="669,-344 669,-422 737,-422 737,-344 669,-344"/>
<polygon fill="none" stroke="black" points="669,-394 669,-422 737,-422 737,-394 669,-394"/>
<text text-anchor="start" x="674" y="-405.2" font-family="Helvetica,sans-Serif" font-weight="bold" font-size="16.00">artefact</text>
<polygon fill="none" stroke="black" points="669,-369 669,-394 737,-394 737,-369 669,-369"/>
<text text-anchor="start" x="674" y="-378.8" font-family="Helvetica,sans-Serif" text-decoration="underline" font-size="14.00">id</text>
<polygon fill="none" stroke="black" points="669,-344 669,-369 737,-369 737,-344 669,-344"/>
<text text-anchor="start" x="674" y="-352.8" font-family="Helvetica,sans-Serif" font-size="14.00">content</text>
</g>
<!-- source_entry&#45;&#45;artefact -->
<g id="edge2" class="edge">
<title>source_entry&#45;&#45;artefact</title>
<path fill="none" stroke="#7f7f7f" stroke-dasharray="5,2" d="M553.74,-300.79C588.36,-319.98 630.37,-343.28 660.83,-360.17"/>
<text text-anchor="start" x="635.83" y="-348.97" font-family="Times,serif" font-size="14.00">1..N</text>
<text text-anchor="start" x="553.74" y="-289.59" font-family="Times,serif" font-size="14.00">1</text>
</g>
<!-- content_type -->
<g id="node8" class="node">
<title>content_type</title>
<polygon fill="#fbbb69" stroke="transparent" points="648,-135.5 648,-188.5 758,-188.5 758,-135.5 648,-135.5"/>
<polygon fill="none" stroke="black" points="648,-160 648,-188 758,-188 758,-160 648,-160"/>
<text text-anchor="start" x="653" y="-171.2" font-family="Helvetica,sans-Serif" font-weight="bold" font-size="16.00">content_type</text>
<polygon fill="none" stroke="black" points="648,-135 648,-160 758,-160 758,-135 648,-135"/>
<text text-anchor="start" x="653" y="-144.8" font-family="Helvetica,sans-Serif" text-decoration="underline" font-size="14.00">id</text>
</g>
<!-- source_entry&#45;&#45;content_type -->
<g id="edge3" class="edge">
<title>source_entry&#45;&#45;content_type</title>
<path fill="none" stroke="#7f7f7f" stroke-dasharray="5,2" d="M553.74,-235.08C580.95,-221.67 612.73,-206 639.87,-192.62"/>
<text text-anchor="start" x="614.87" y="-181.42" font-family="Times,serif" font-size="14.00">1..N</text>
<text text-anchor="start" x="553.74" y="-223.88" font-family="Times,serif" font-size="14.00">1</text>
</g>
<!-- node -->
<g id="node5" class="node">
<title>node</title>
<polygon fill="#d0e0d0" stroke="transparent" points="8,-108 8,-286 115,-286 115,-108 8,-108"/>
<polygon fill="none" stroke="black" points="8.5,-258 8.5,-286 115.5,-286 115.5,-258 8.5,-258"/>
<text text-anchor="start" x="42.5" y="-269.2" font-family="Helvetica,sans-Serif" font-weight="bold" font-size="16.00">node</text>
<polygon fill="none" stroke="black" points="8.5,-233 8.5,-258 115.5,-258 115.5,-233 8.5,-233"/>
<text text-anchor="start" x="13.5" y="-242.8" font-family="Helvetica,sans-Serif" text-decoration="underline" font-size="14.00">id</text>
<polygon fill="none" stroke="black" points="8.5,-208 8.5,-233 115.5,-233 115.5,-208 8.5,-208"/>
<text text-anchor="start" x="13.5" y="-216.8" font-family="Helvetica,sans-Serif" font-size="14.00">title</text>
<polygon fill="none" stroke="black" points="8.5,-183 8.5,-208 115.5,-208 115.5,-183 8.5,-183"/>
<text text-anchor="start" x="13.5" y="-191.8" font-family="Helvetica,sans-Serif" font-size="14.00">description</text>
<polygon fill="none" stroke="black" points="8.5,-158 8.5,-183 115.5,-183 115.5,-158 8.5,-158"/>
<text text-anchor="start" x="13.5" y="-167.8" font-family="Helvetica,sans-Serif" font-style="italic" font-size="14.00">lineage_id</text>
<polygon fill="none" stroke="black" points="8.5,-133 8.5,-158 115.5,-158 115.5,-133 8.5,-133"/>
<text text-anchor="start" x="13.5" y="-142.8" font-family="Helvetica,sans-Serif" font-style="italic" font-size="14.00">content_type_id</text>
<polygon fill="none" stroke="black" points="8.5,-108 8.5,-133 115.5,-133 115.5,-108 8.5,-108"/>
<text text-anchor="start" x="13.5" y="-117.8" font-family="Helvetica,sans-Serif" font-style="italic" font-size="14.00">artefact_id</text>
</g>
<!-- node&#45;&#45;source_entry -->
<g id="edge5" class="edge">
<title>node&#45;&#45;source_entry</title>
<path fill="none" stroke="#7f7f7f" stroke-dasharray="5,2" d="M123.01,-178.17C180.08,-163.42 267.44,-148.65 340,-170 370.7,-179.03 401.05,-196.57 426.26,-214.21"/>
<text text-anchor="start" x="419.26" y="-203.01" font-family="Times,serif" font-size="14.00">1</text>
<text text-anchor="start" x="123.01" y="-166.97" font-family="Times,serif" font-size="14.00">1</text>
</g>
<!-- node&#45;&#45;artefact -->
<g id="edge7" class="edge">
<title>node&#45;&#45;artefact</title>
<path fill="none" stroke="#7f7f7f" stroke-dasharray="5,2" d="M78.49,-290.2C101.35,-388.72 153.87,-530 267,-530 267,-530 267,-530 491,-530 525.82,-530 536.48,-527.75 567,-511 605.93,-489.64 641.99,-454.3 667.03,-426.16"/>
<text text-anchor="start" x="642.03" y="-429.96" font-family="Times,serif" font-size="14.00">1..N</text>
<text text-anchor="start" x="71.49" y="-294" font-family="Times,serif" font-size="14.00">1</text>
</g>
<!-- connection -->
<g id="node6" class="node">
<title>connection</title>
<polygon fill="#d0e0d0" stroke="transparent" points="204,-183 204,-411 332,-411 332,-183 204,-183"/>
<polygon fill="none" stroke="black" points="204,-383 204,-411 332,-411 332,-383 204,-383"/>
<text text-anchor="start" x="225" y="-394.2" font-family="Helvetica,sans-Serif" font-weight="bold" font-size="16.00">connection</text>
<polygon fill="none" stroke="black" points="204,-358 204,-383 332,-383 332,-358 204,-358"/>
<text text-anchor="start" x="209" y="-367.8" font-family="Helvetica,sans-Serif" text-decoration="underline" font-size="14.00">origin_id</text>
<polygon fill="none" stroke="black" points="204,-333 204,-358 332,-358 332,-333 204,-333"/>
<text text-anchor="start" x="209" y="-342.8" font-family="Helvetica,sans-Serif" text-decoration="underline" font-size="14.00">target_id</text>
<polygon fill="none" stroke="black" points="204,-308 204,-333 332,-333 332,-308 204,-308"/>
<text text-anchor="start" x="209" y="-316.8" font-family="Helvetica,sans-Serif" font-size="14.00">title</text>
<polygon fill="none" stroke="black" points="204,-283 204,-308 332,-308 332,-283 204,-283"/>
<text text-anchor="start" x="209" y="-291.8" font-family="Helvetica,sans-Serif" font-size="14.00">description</text>
<polygon fill="none" stroke="black" points="204,-258 204,-283 332,-283 332,-258 204,-258"/>
<text text-anchor="start" x="209" y="-267.8" font-family="Helvetica,sans-Serif" font-style="italic" font-size="14.00">connection_type_id</text>
<polygon fill="none" stroke="black" points="204,-233 204,-258 332,-258 332,-233 204,-233"/>
<text text-anchor="start" x="209" y="-242.8" font-family="Helvetica,sans-Serif" font-style="italic" font-size="14.00">lineage_id</text>
<polygon fill="none" stroke="black" points="204,-208 204,-233 332,-233 332,-208 204,-208"/>
<text text-anchor="start" x="209" y="-217.8" font-family="Helvetica,sans-Serif" font-style="italic" font-size="14.00">content_type_id</text>
<polygon fill="none" stroke="black" points="204,-183 204,-208 332,-208 332,-183 204,-183"/>
<text text-anchor="start" x="209" y="-192.8" font-family="Helvetica,sans-Serif" font-style="italic" font-size="14.00">artefact_id</text>
</g>
<!-- node&#45;&#45;connection -->
<g id="edge4" class="edge">
<title>node&#45;&#45;connection</title>
<path fill="none" stroke="#7f7f7f" stroke-dasharray="5,2" d="M123.03,-226.6C145.88,-237.77 172.08,-250.58 195.82,-262.19"/>
<text text-anchor="start" x="170.82" y="-250.99" font-family="Times,serif" font-size="14.00">0..N</text>
<text text-anchor="start" x="123.03" y="-215.4" font-family="Times,serif" font-size="14.00">1</text>
</g>
<!-- node&#45;&#45;content_type -->
<g id="edge6" class="edge">
<title>node&#45;&#45;content_type</title>
<path fill="none" stroke="#7f7f7f" stroke-dasharray="5,2" d="M123.41,-157.46C162.75,-135.67 215.95,-113 267,-113 267,-113 267,-113 491,-113 541.96,-113 598.08,-126.73 639.63,-139.65"/>
<text text-anchor="start" x="614.63" y="-128.45" font-family="Times,serif" font-size="14.00">1..N</text>
<text text-anchor="start" x="123.41" y="-146.26" font-family="Times,serif" font-size="14.00">1</text>
</g>
<!-- connection&#45;&#45;source_entry -->
<g id="edge8" class="edge">
<title>connection&#45;&#45;source_entry</title>
<path fill="none" stroke="#7f7f7f" stroke-dasharray="5,2" d="M340.12,-286.98C367.87,-283.07 399.4,-278.63 426.28,-274.84"/>
<text text-anchor="start" x="419.28" y="-263.64" font-family="Times,serif" font-size="14.00">1</text>
<text text-anchor="start" x="340.12" y="-275.78" font-family="Times,serif" font-size="14.00">1</text>
</g>
<!-- connection&#45;&#45;artefact -->
<g id="edge11" class="edge">
<title>connection&#45;&#45;artefact</title>
<path fill="none" stroke="#7f7f7f" stroke-dasharray="5,2" d="M340.11,-322.38C363.14,-329.88 388.94,-337.54 413,-343 500.18,-362.8 604.52,-374.31 660.92,-379.55"/>
<text text-anchor="start" x="635.92" y="-368.35" font-family="Times,serif" font-size="14.00">0..N</text>
<text text-anchor="start" x="340.11" y="-311.18" font-family="Times,serif" font-size="14.00">1</text>
</g>
<!-- connection_type -->
<g id="node7" class="node">
<title>connection_type</title>
<polygon fill="#d0e0d0" stroke="transparent" points="421,-394.5 421,-497.5 559,-497.5 559,-394.5 421,-394.5"/>
<polygon fill="none" stroke="black" points="421,-469 421,-497 559,-497 559,-469 421,-469"/>
<text text-anchor="start" x="426" y="-480.2" font-family="Helvetica,sans-Serif" font-weight="bold" font-size="16.00">connection_type</text>
<polygon fill="none" stroke="black" points="421,-444 421,-469 559,-469 559,-444 421,-444"/>
<text text-anchor="start" x="426" y="-453.8" font-family="Helvetica,sans-Serif" text-decoration="underline" font-size="14.00">id</text>
<polygon fill="none" stroke="black" points="421,-419 421,-444 559,-444 559,-419 421,-419"/>
<text text-anchor="start" x="426" y="-427.8" font-family="Helvetica,sans-Serif" font-size="14.00">label</text>
<polygon fill="none" stroke="black" points="421,-394 421,-419 559,-419 559,-394 421,-394"/>
<text text-anchor="start" x="426" y="-403.8" font-family="Helvetica,sans-Serif" font-style="italic" font-size="14.00">lineage_id</text>
</g>
<!-- connection&#45;&#45;connection_type -->
<g id="edge9" class="edge">
<title>connection&#45;&#45;connection_type</title>
<path fill="none" stroke="#7f7f7f" stroke-dasharray="5,2" d="M340.08,-350.72C351.96,-359.34 364.24,-368.04 376,-376 387.75,-383.96 400.38,-392.13 412.78,-399.96"/>
<text text-anchor="start" x="405.78" y="-388.76" font-family="Times,serif" font-size="14.00">1</text>
<text text-anchor="start" x="340.08" y="-339.52" font-family="Times,serif" font-size="14.00">0..N</text>
</g>
<!-- connection&#45;&#45;content_type -->
<g id="edge10" class="edge">
<title>connection&#45;&#45;content_type</title>
<path fill="none" stroke="#7f7f7f" stroke-dasharray="5,2" d="M340.13,-231.59C362.03,-214.94 387.2,-198.96 413,-189 487.16,-160.38 579.66,-156.78 639.74,-158.23"/>
<text text-anchor="start" x="614.74" y="-147.03" font-family="Times,serif" font-size="14.00">1..N</text>
<text text-anchor="start" x="340.13" y="-220.39" font-family="Times,serif" font-size="14.00">1</text>
</g>
</g>
</svg>
