<?xml version="1.0" encoding="UTF-8" standalone="no"?>
<!DOCTYPE svg PUBLIC "-//W3C//DTD SVG 1.1//EN"
 "http://www.w3.org/Graphics/SVG/1.1/DTD/svg11.dtd">
<!-- Generated by graphviz version 2.42.3 ()
 -->
<!-- Title: %3 Pages: 1 -->
<svg width="774pt" height="551pt"
 viewBox="0.00 0.00 774.00 551.00" xmlns="http://www.w3.org/2000/svg" xmlns:xlink="http://www.w3.org/1999/xlink">
<g id="graph0" class="graph" transform="scale(1 1) rotate(0) translate(4 547)">
<title>%3</title>
<polygon fill="white" stroke="transparent" points="-4,4 -4,-547 770,-547 770,4 -4,4"/>
<!-- context -->
<g id="node1" class="node">
<title>context</title>
<polygon fill="#fbfbdb" stroke="transparent" points="27.5,-4 27.5,-82 95.5,-82 95.5,-4 27.5,-4"/>
<polygon fill="none" stroke="black" points="27.5,-54 27.5,-82 95.5,-82 95.5,-54 27.5,-54"/>
<text text-anchor="start" x="32.5" y="-65.2" font-family="Helvetica,sans-Serif" font-weight="bold" font-size="16.00">context</text>
<polygon fill="none" stroke="black" points="27.5,-29 27.5,-54 95.5,-54 95.5,-29 27.5,-29"/>
<text text-anchor="start" x="32.5" y="-38.8" font-family="Helvetica,sans-Serif" text-decoration="underline" font-size="14.00">key</text>
<polygon fill="none" stroke="black" points="27.5,-4 27.5,-29 95.5,-29 95.5,-4 27.5,-4"/>
<text text-anchor="start" x="32.5" y="-12.8" font-family="Helvetica,sans-Serif" font-size="14.00">value</text>
</g>
<!-- source -->
<g id="node2" class="node">
<title>source</title>
<polygon fill="#fbbb69" stroke="transparent" points="666.5,-227.5 666.5,-330.5 739.5,-330.5 739.5,-227.5 666.5,-227.5"/>
<polygon fill="none" stroke="black" points="667,-302 667,-330 740,-330 740,-302 667,-302"/>
<text text-anchor="start" x="677" y="-313.2" font-family="Helvetica,sans-Serif" font-weight="bold" font-size="16.00">source</text>
<polygon fill="none" stroke="black" points="667,-277 667,-302 740,-302 740,-277 667,-277"/>
<text text-anchor="start" x="672" y="-286.8" font-family="Helvetica,sans-Serif" text-decoration="underline" font-size="14.00">id</text>
<polygon fill="none" stroke="black" points="667,-252 667,-277 740,-277 740,-252 667,-252"/>
<text text-anchor="start" x="672" y="-260.8" font-family="Helvetica,sans-Serif" font-size="14.00">route</text>
<polygon fill="none" stroke="black" points="667,-227 667,-252 740,-252 740,-227 667,-227"/>
<text text-anchor="start" x="672" y="-235.8" font-family="Helvetica,sans-Serif" font-size="14.00">timestamp</text>
</g>
<!-- source_entry -->
<g id="node3" class="node">
<title>source_entry</title>
<polygon fill="#fbbb69" stroke="transparent" points="434.5,-215 434.5,-343 545.5,-343 545.5,-215 434.5,-215"/>
<polygon fill="none" stroke="black" points="435,-315 435,-343 546,-343 546,-315 435,-315"/>
<text text-anchor="start" x="440" y="-326.2" font-family="Helvetica,sans-Serif" font-weight="bold" font-size="16.00">source_entry</text>
<polygon fill="none" stroke="black" points="435,-290 435,-315 546,-315 546,-290 435,-290"/>
<text text-anchor="start" x="440" y="-299.8" font-family="Helvetica,sans-Serif" text-decoration="underline" font-size="14.00">id</text>
<polygon fill="none" stroke="black" points="435,-265 435,-290 546,-290 546,-265 435,-265"/>
<text text-anchor="start" x="440" y="-274.8" font-family="Helvetica,sans-Serif" font-style="italic" font-size="14.00">source_id</text>
<polygon fill="none" stroke="black" points="435,-240 435,-265 546,-265 546,-240 435,-240"/>
<text text-anchor="start" x="440" y="-249.8" font-family="Helvetica,sans-Serif" font-style="italic" font-size="14.00">content_id</text>
<polygon fill="none" stroke="black" points="435,-215 435,-240 546,-240 546,-215 435,-215"/>
<text text-anchor="start" x="440" y="-223.8" font-family="Helvetica,sans-Serif" font-size="14.00">content_type_id</text>
</g>
<!-- source_entry&#45;&#45;source -->
<g id="edge1" class="edge">
<title>source_entry&#45;&#45;source</title>
<path fill="none" stroke="#7f7f7f" stroke-dasharray="5,2" d="M553.74,-279C587.39,-279 628.02,-279 658.24,-279"/>
<text text-anchor="start" x="651.24" y="-267.8" font-family="Times,serif" font-size="14.00">1</text>
<text text-anchor="start" x="553.74" y="-267.8" font-family="Times,serif" font-size="14.00">0..N</text>
</g>
<!-- artefact -->
<g id="node4" class="node">
<title>artefact</title>
<polygon fill="#fbbb69" stroke="transparent" points="669,-357 669,-435 737,-435 737,-357 669,-357"/>
<polygon fill="none" stroke="black" points="669,-407 669,-435 737,-435 737,-407 669,-407"/>
<text text-anchor="start" x="674" y="-418.2" font-family="Helvetica,sans-Serif" font-weight="bold" font-size="16.00">artefact</text>
<polygon fill="none" stroke="black" points="669,-382 669,-407 737,-407 737,-382 669,-382"/>
<text text-anchor="start" x="674" y="-391.8" font-family="Helvetica,sans-Serif" text-decoration="underline" font-size="14.00">id</text>
<polygon fill="none" stroke="black" points="669,-357 669,-382 737,-382 737,-357 669,-357"/>
<text text-anchor="start" x="674" y="-365.8" font-family="Helvetica,sans-Serif" font-size="14.00">content</text>
</g>
<!-- source_entry&#45;&#45;artefact -->
<g id="edge2" class="edge">
<title>source_entry&#45;&#45;artefact</title>
<path fill="none" stroke="#7f7f7f" stroke-dasharray="5,2" d="M553.74,-313.79C588.36,-332.98 630.37,-356.28 660.83,-373.17"/>
<text text-anchor="start" x="635.83" y="-361.97" font-family="Times,serif" font-size="14.00">1..N</text>
<text text-anchor="start" x="553.74" y="-302.59" font-family="Times,serif" font-size="14.00">1</text>
</g>
<!-- content_type -->
<g id="node8" class="node">
<title>content_type</title>
<polygon fill="#fbbb69" stroke="transparent" points="648,-148.5 648,-201.5 758,-201.5 758,-148.5 648,-148.5"/>
<polygon fill="none" stroke="black" points="648,-173 648,-201 758,-201 758,-173 648,-173"/>
<text text-anchor="start" x="653" y="-184.2" font-family="Helvetica,sans-Serif" font-weight="bold" font-size="16.00">content_type</text>
<polygon fill="none" stroke="black" points="648,-148 648,-173 758,-173 758,-148 648,-148"/>
<text text-anchor="start" x="653" y="-157.8" font-family="Helvetica,sans-Serif" text-decoration="underline" font-size="14.00">id</text>
</g>
<!-- source_entry&#45;&#45;content_type -->
<g id="edge3" class="edge">
<title>source_entry&#45;&#45;content_type</title>
<path fill="none" stroke="#7f7f7f" stroke-dasharray="5,2" d="M553.74,-248.08C580.95,-234.67 612.73,-219 639.87,-205.62"/>
<text text-anchor="start" x="614.87" y="-194.42" font-family="Times,serif" font-size="14.00">1..N</text>
<text text-anchor="start" x="553.74" y="-236.88" font-family="Times,serif" font-size="14.00">1</text>
</g>
<!-- node -->
<g id="node5" class="node">
<title>node</title>
<polygon fill="#d0e0d0" stroke="transparent" points="8,-108.5 8,-311.5 115,-311.5 115,-108.5 8,-108.5"/>
<polygon fill="none" stroke="black" points="8.5,-283 8.5,-311 115.5,-311 115.5,-283 8.5,-283"/>
<text text-anchor="start" x="42.5" y="-294.2" font-family="Helvetica,sans-Serif" font-weight="bold" font-size="16.00">node</text>
<polygon fill="none" stroke="black" points="8.5,-258 8.5,-283 115.5,-283 115.5,-258 8.5,-258"/>
<text text-anchor="start" x="13.5" y="-267.8" font-family="Helvetica,sans-Serif" text-decoration="underline" font-size="14.00">id</text>
<polygon fill="none" stroke="black" points="8.5,-233 8.5,-258 115.5,-258 115.5,-233 8.5,-233"/>
<text text-anchor="start" x="13.5" y="-241.8" font-family="Helvetica,sans-Serif" font-size="14.00">title</text>
<polygon fill="none" stroke="black" points="8.5,-208 8.5,-233 115.5,-233 115.5,-208 8.5,-208"/>
<text text-anchor="start" x="13.5" y="-216.8" font-family="Helvetica,sans-Serif" font-size="14.00">description</text>
<polygon fill="none" stroke="black" points="8.5,-183 8.5,-208 115.5,-208 115.5,-183 8.5,-183"/>
<text text-anchor="start" x="13.5" y="-192.8" font-family="Helvetica,sans-Serif" font-style="italic" font-size="14.00">lineage_id</text>
<polygon fill="none" stroke="black" points="8.5,-158 8.5,-183 115.5,-183 115.5,-158 8.5,-158"/>
<text text-anchor="start" x="13.5" y="-167.8" font-family="Helvetica,sans-Serif" font-style="italic" font-size="14.00">content_id</text>
<polygon fill="none" stroke="black" points="8.5,-133 8.5,-158 115.5,-158 115.5,-133 8.5,-133"/>
<text text-anchor="start" x="13.5" y="-142.8" font-family="Helvetica,sans-Serif" font-style="italic" font-size="14.00">content_type_id</text>
<polygon fill="none" stroke="black" points="8.5,-108 8.5,-133 115.5,-133 115.5,-108 8.5,-108"/>
<text text-anchor="start" x="13.5" y="-117.8" font-family="Helvetica,sans-Serif" font-style="italic" font-size="14.00">artefact_id</text>
</g>
<!-- node&#45;&#45;source_entry -->
<g id="edge5" class="edge">
<title>node&#45;&#45;source_entry</title>
<path fill="none" stroke="#7f7f7f" stroke-dasharray="5,2" d="M123.01,-191.17C180.08,-176.42 267.44,-161.65 340,-183 370.7,-192.03 401.05,-209.57 426.26,-227.21"/>
<text text-anchor="start" x="419.26" y="-216.01" font-family="Times,serif" font-size="14.00">1</text>
<text text-anchor="start" x="123.01" y="-179.97" font-family="Times,serif" font-size="14.00">1</text>
</g>
<!-- node&#45;&#45;artefact -->
<g id="edge7" class="edge">
<title>node&#45;&#45;artefact</title>
<path fill="none" stroke="#7f7f7f" stroke-dasharray="5,2" d="M81.52,-315.82C105.87,-413.33 158.62,-543 267,-543 267,-543 267,-543 491,-543 525.82,-543 536.48,-540.75 567,-524 605.93,-502.64 641.99,-467.3 667.03,-439.16"/>
<text text-anchor="start" x="642.03" y="-442.96" font-family="Times,serif" font-size="14.00">1..N</text>
<text text-anchor="start" x="74.52" y="-319.62" font-family="Times,serif" font-size="14.00">1</text>
</g>
<!-- connection -->
<g id="node6" class="node">
<title>connection</title>
<polygon fill="#d0e0d0" stroke="transparent" points="204,-196 204,-424 332,-424 332,-196 204,-196"/>
<polygon fill="none" stroke="black" points="204,-396 204,-424 332,-424 332,-396 204,-396"/>
<text text-anchor="start" x="225" y="-407.2" font-family="Helvetica,sans-Serif" font-weight="bold" font-size="16.00">connection</text>
<polygon fill="none" stroke="black" points="204,-371 204,-396 332,-396 332,-371 204,-371"/>
<text text-anchor="start" x="209" y="-380.8" font-family="Helvetica,sans-Serif" text-decoration="underline" font-size="14.00">origin_id</text>
<polygon fill="none" stroke="black" points="204,-346 204,-371 332,-371 332,-346 204,-346"/>
<text text-anchor="start" x="209" y="-355.8" font-family="Helvetica,sans-Serif" text-decoration="underline" font-size="14.00">target_id</text>
<polygon fill="none" stroke="black" points="204,-321 204,-346 332,-346 332,-321 204,-321"/>
<text text-anchor="start" x="209" y="-329.8" font-family="Helvetica,sans-Serif" font-size="14.00">title</text>
<polygon fill="none" stroke="black" points="204,-296 204,-321 332,-321 332,-296 204,-296"/>
<text text-anchor="start" x="209" y="-304.8" font-family="Helvetica,sans-Serif" font-size="14.00">description</text>
<polygon fill="none" stroke="black" points="204,-271 204,-296 332,-296 332,-271 204,-271"/>
<text text-anchor="start" x="209" y="-280.8" font-family="Helvetica,sans-Serif" font-style="italic" font-size="14.00">connection_type_id</text>
<polygon fill="none" stroke="black" points="204,-246 204,-271 332,-271 332,-246 204,-246"/>
<text text-anchor="start" x="209" y="-255.8" font-family="Helvetica,sans-Serif" font-style="italic" font-size="14.00">lineage_id</text>
<polygon fill="none" stroke="black" points="204,-221 204,-246 332,-246 332,-221 204,-221"/>
<text text-anchor="start" x="209" y="-230.8" font-family="Helvetica,sans-Serif" font-style="italic" font-size="14.00">content_type_id</text>
<polygon fill="none" stroke="black" points="204,-196 204,-221 332,-221 332,-196 204,-196"/>
<text text-anchor="start" x="209" y="-205.8" font-family="Helvetica,sans-Serif" font-style="italic" font-size="14.00">artefact_id</text>
</g>
<!-- node&#45;&#45;connection -->
<g id="edge4" class="edge">
<title>node&#45;&#45;connection</title>
<path fill="none" stroke="#7f7f7f" stroke-dasharray="5,2" d="M123.03,-239.6C145.88,-250.77 172.08,-263.58 195.82,-275.19"/>
<text text-anchor="start" x="170.82" y="-263.99" font-family="Times,serif" font-size="14.00">0..N</text>
<text text-anchor="start" x="123.03" y="-228.4" font-family="Times,serif" font-size="14.00">1</text>
</g>
<!-- node&#45;&#45;content_type -->
<g id="edge6" class="edge">
<title>node&#45;&#45;content_type</title>
<path fill="none" stroke="#7f7f7f" stroke-dasharray="5,2" d="M123.41,-170.46C162.75,-148.67 215.95,-126 267,-126 267,-126 267,-126 491,-126 541.96,-126 598.08,-139.73 639.63,-152.65"/>
<text text-anchor="start" x="614.63" y="-141.45" font-family="Times,serif" font-size="14.00">1..N</text>
<text text-anchor="start" x="123.41" y="-159.26" font-family="Times,serif" font-size="14.00">1</text>
</g>
<!-- connection&#45;&#45;source_entry -->
<g id="edge8" class="edge">
<title>connection&#45;&#45;source_entry</title>
<path fill="none" stroke="#7f7f7f" stroke-dasharray="5,2" d="M340.12,-299.98C367.87,-296.07 399.4,-291.63 426.28,-287.84"/>
<text text-anchor="start" x="419.28" y="-276.64" font-family="Times,serif" font-size="14.00">1</text>
<text text-anchor="start" x="340.12" y="-288.78" font-family="Times,serif" font-size="14.00">1</text>
</g>
<!-- connection&#45;&#45;artefact -->
<g id="edge11" class="edge">
<title>connection&#45;&#45;artefact</title>
<path fill="none" stroke="#7f7f7f" stroke-dasharray="5,2" d="M340.11,-335.38C363.14,-342.88 388.94,-350.54 413,-356 500.18,-375.8 604.52,-387.31 660.92,-392.55"/>
<text text-anchor="start" x="635.92" y="-381.35" font-family="Times,serif" font-size="14.00">0..N</text>
<text text-anchor="start" x="340.11" y="-324.18" font-family="Times,serif" font-size="14.00">1</text>
</g>
<!-- connection_type -->
<g id="node7" class="node">
<title>connection_type</title>
<polygon fill="#d0e0d0" stroke="transparent" points="421,-407.5 421,-510.5 559,-510.5 559,-407.5 421,-407.5"/>
<polygon fill="none" stroke="black" points="421,-482 421,-510 559,-510 559,-482 421,-482"/>
<text text-anchor="start" x="426" y="-493.2" font-family="Helvetica,sans-Serif" font-weight="bold" font-size="16.00">connection_type</text>
<polygon fill="none" stroke="black" points="421,-457 421,-482 559,-482 559,-457 421,-457"/>
<text text-anchor="start" x="426" y="-466.8" font-family="Helvetica,sans-Serif" text-decoration="underline" font-size="14.00">id</text>
<polygon fill="none" stroke="black" points="421,-432 421,-457 559,-457 559,-432 421,-432"/>
<text text-anchor="start" x="426" y="-440.8" font-family="Helvetica,sans-Serif" font-size="14.00">label</text>
<polygon fill="none" stroke="black" points="421,-407 421,-432 559,-432 559,-407 421,-407"/>
<text text-anchor="start" x="426" y="-416.8" font-family="Helvetica,sans-Serif" font-style="italic" font-size="14.00">lineage_id</text>
</g>
<!-- connection&#45;&#45;connection_type -->
<g id="edge9" class="edge">
<title>connection&#45;&#45;connection_type</title>
<path fill="none" stroke="#7f7f7f" stroke-dasharray="5,2" d="M340.08,-363.72C351.96,-372.34 364.24,-381.04 376,-389 387.75,-396.96 400.38,-405.13 412.78,-412.96"/>
<text text-anchor="start" x="405.78" y="-401.76" font-family="Times,serif" font-size="14.00">1</text>
<text text-anchor="start" x="340.08" y="-352.52" font-family="Times,serif" font-size="14.00">0..N</text>
</g>
<!-- connection&#45;&#45;content_type -->
<g id="edge10" class="edge">
<title>connection&#45;&#45;content_type</title>
<path fill="none" stroke="#7f7f7f" stroke-dasharray="5,2" d="M340.13,-244.59C362.03,-227.94 387.2,-211.96 413,-202 487.16,-173.38 579.66,-169.78 639.74,-171.23"/>
<text text-anchor="start" x="614.74" y="-160.03" font-family="Times,serif" font-size="14.00">1..N</text>
<text text-anchor="start" x="340.13" y="-233.39" font-family="Times,serif" font-size="14.00">1</text>
</g>
</g>
</svg>
